<?xml version="1.0" encoding="utf-8"?>
<svg id="master-artboard" viewBox="0 0 1400 980" version="1.1" xmlns="http://www.w3.org/2000/svg" x="0px" y="0px" enable-background="new 0 0 1400 980" width="1400px" height="980px"><rect id="ee-background" x="0" y="0" width="1400" height="980" style="fill: white; fill-opacity: 0; pointer-events: none;"/>
<metadata><!--?xpacket begin="﻿" id="W5M0MpCehiHzreSzNTczkc9d"?-->

                                                                                                    
                                                                                                    
                                                                                                    
                                                                                                    
                                                                                                    
                                                                                                    
                                                                                                    
                                                                                                    
                                                                                                    
                                                                                                    
                                                                                                    
                                                                                                    
                                                                                                    
                                                                                                    
                                                                                                    
                                                                                                    
                                                                                                    
                                                                                                    
                                                                                                    
                                                                                                    
                           
<!--?xpacket end="w"?-->
	</metadata>


<g transform="matrix(2.1875, 0, 0, 2.1875, -0.000004416561750986148, 418.90624558343825)"><g transform="translate(0.000000,65.000000) scale(0.100000,-0.100000)" fill="#000000" stroke="none">
<path d="M1430 643 c-289 -10 -583 -37 -805 -73 -167 -28 -365 -72 -360 -80 2&#10;-4 -7 -5 -22 -2 -18 3 -24 1 -19 -6 4 -8 2 -10 -8 -6 -8 3 -60 -8 -116 -25&#10;l-100 -32 0 -209 0 -210 3200 0 3200 0 0 209 0 209 -64 -21 c-36 -11 -62 -25&#10;-59 -30 3 -6 1 -7 -6 -3 -14 9 -113 -12 -107 -22 2 -4 -12 -8 -32 -9 -56 -2&#10;-310 -59 -287 -64 11 -3 -5 -5 -35 -5 -30 0 -129 -10 -220 -22 -255 -33 -409&#10;-42 -729 -42 -440 0 -768 31 -1185 111 -87 16 -166 27 -175 24 -8 -3 -12 -3&#10;-8 2 11 10 -293 84 -323 77 -17 -3 -21 -2 -12 4 9 6 -30 20 -120 40 -239 56&#10;-279 64 -299 59 -10 -3 -17 -1 -13 4 3 5 1 9 -4 9 -4 0 -74 11 -153 25 -332&#10;56 -870 98 -1139 88z m-97 -20 c-7 -2 -19 -2 -25 0 -7 3 -2 5 12 5 14 0 19 -2&#10;13 -5z m430 0 c-7 -2 -19 -2 -25 0 -7 3 -2 5 12 5 14 0 19 -2 13 -5z m-555&#10;-10 c-10 -2 -28 -2 -40 0 -13 2 -5 4 17 4 22 1 32 -1 23 -4z m705 0 c-7 -2&#10;-21 -2 -30 0 -10 3 -4 5 12 5 17 0 24 -2 18 -5z m44 1 c-3 -3 -12 -4 -19 -1&#10;-8 3 -5 6 6 6 11 1 17 -2 13 -5z m-914 -11 c-7 -2 -19 -2 -25 0 -7 3 -2 5 12&#10;5 14 0 19 -2 13 -5z m1025 0 c-10 -2 -28 -2 -40 0 -13 2 -5 4 17 4 22 1 32 -1&#10;23 -4z m79 -9 c-3 -3 -12 -4 -19 -1 -8 3 -5 6 6 6 11 1 17 -2 13 -5z m-1294&#10;-11 c-7 -2 -21 -2 -30 0 -10 3 -4 5 12 5 17 0 24 -2 18 -5z m1410 0 c-7 -2&#10;-21 -2 -30 0 -10 3 -4 5 12 5 17 0 24 -2 18 -5z m-1490 -10 c-7 -2 -19 -2 -25&#10;0 -7 3 -2 5 12 5 14 0 19 -2 13 -5z m1570 0 c-7 -2 -21 -2 -30 0 -10 3 -4 5&#10;12 5 17 0 24 -2 18 -5z m-1646 -9 c-3 -3 -12 -4 -19 -1 -8 3 -5 6 6 6 11 1 17&#10;-2 13 -5z m1726 -1 c-7 -2 -21 -2 -30 0 -10 3 -4 5 12 5 17 0 24 -2 18 -5z&#10;m-1786 -9 c-3 -3 -12 -4 -19 -1 -8 3 -5 6 6 6 11 1 17 -2 13 -5z m-60 -10 c-3&#10;-3 -12 -4 -19 -1 -8 3 -5 6 6 6 11 1 17 -2 13 -5z m1976 -1 c-7 -2 -19 -2 -25&#10;0 -7 3 -2 5 12 5 14 0 19 -2 13 -5z m-2030 -10 c-7 -2 -19 -2 -25 0 -7 3 -2 5&#10;12 5 14 0 19 -2 13 -5z m2254 -29 c-3 -3 -12 -4 -19 -1 -8 3 -5 6 6 6 11 1 17&#10;-2 13 -5z m-2450 -10 c-3 -3 -12 -4 -19 -1 -8 3 -5 6 6 6 11 1 17 -2 13 -5z&#10;m2590 -20 c-3 -3 -12 -4 -19 -1 -8 3 -5 6 6 6 11 1 17 -2 13 -5z m50 -10 c-3&#10;-3 -12 -4 -19 -1 -8 3 -5 6 6 6 11 1 17 -2 13 -5z m80 -20 c-3 -3 -12 -4 -19&#10;-1 -8 3 -5 6 6 6 11 1 17 -2 13 -5z m200 -50 c-3 -3 -12 -4 -19 -1 -8 3 -5 6&#10;6 6 11 1 17 -2 13 -5z m200 -50 c-3 -3 -12 -4 -19 -1 -8 3 -5 6 6 6 11 1 17&#10;-2 13 -5z m240 -50 c-3 -3 -12 -4 -19 -1 -8 3 -5 6 6 6 11 1 17 -2 13 -5z m56&#10;-11 c-7 -2 -19 -2 -25 0 -7 3 -2 5 12 5 14 0 19 -2 13 -5z m2224 1 c-3 -3 -12&#10;-4 -19 -1 -8 3 -5 6 6 6 11 1 17 -2 13 -5z m-2170 -10 c-3 -3 -12 -4 -19 -1&#10;-8 3 -5 6 6 6 11 1 17 -2 13 -5z m1946 -31 c-7 -2 -19 -2 -25 0 -7 3 -2 5 12&#10;5 14 0 19 -2 13 -5z m-66 -9 c-3 -3 -12 -4 -19 -1 -8 3 -5 6 6 6 11 1 17 -2&#10;13 -5z m-1550 -10 c-3 -3 -12 -4 -19 -1 -8 3 -5 6 6 6 11 1 17 -2 13 -5z&#10;m1490 0 c-3 -3 -12 -4 -19 -1 -8 3 -5 6 6 6 11 1 17 -2 13 -5z m-1389 -11&#10;c-10 -2 -26 -2 -35 0 -10 3 -2 5 17 5 19 0 27 -2 18 -5z m1285 0 c-7 -2 -19&#10;-2 -25 0 -7 3 -2 5 12 5 14 0 19 -2 13 -5z m-1190 -10 c-7 -2 -21 -2 -30 0&#10;-10 3 -4 5 12 5 17 0 24 -2 18 -5z m1105 0 c-10 -2 -26 -2 -35 0 -10 3 -2 5&#10;17 5 19 0 27 -2 18 -5z m-985 -10 c-7 -2 -21 -2 -30 0 -10 3 -4 5 12 5 17 0&#10;24 -2 18 -5z m870 0 c-7 -2 -19 -2 -25 0 -7 3 -2 5 12 5 14 0 19 -2 13 -5z&#10;m-666 -10 c-20 -2 -52 -2 -70 0 -17 2 0 4 38 4 39 0 53 -2 32 -4z m70 1 c-3&#10;-3 -12 -4 -19 -1 -8 3 -5 6 6 6 11 1 17 -2 13 -5z m326 -1 c-7 -2 -19 -2 -25&#10;0 -7 3 -2 5 12 5 14 0 19 -2 13 -5z m110 0 c-18 -2 -48 -2 -65 0 -18 2 -4 4&#10;32 4 36 0 50 -2 33 -4z" style="fill: rgb(206, 177, 185);"/>
<path d="M 468.0480651855469 529.0721130371094 L 819.3717041015625 586.7826538085938 L 1209.827392578125 617.36865234375 L 1327.922607421875 633.36865234375 L 1754.5892333984375 632.6067504882812 L 1972.4940185546875 619.6543579101562 L 2165.255859375 599.8448486328125 L 2167.9150390625 555.7119140625 L 468.0480651855469 529.0721130371094 Z" style="fill-opacity: 1; stroke: rgb(206, 177, 185); stroke-opacity: 1; stroke-width: 10; paint-order: fill; fill: rgb(206, 177, 185);"/><path d="M 135.95738220214844 456.9029235839844 L 286.81451416015625 497.2838439941406 L 366.0526123046875 512.5219116210938 L 314.24310302734375 483.5695495605469 L 209.10023498535156 462.9981384277344" style="fill: rgb(206, 177, 185); fill-opacity: 1; stroke: rgb(206, 177, 185); stroke-opacity: 1; stroke-width: 10; paint-order: stroke;"/><path d="M 386.6240539550781 445.4743347167969 C 386.6240539550781 445.4743347167969 385.8621520996094 442.42669677734375 386.6240539550781 442.42669677734375" style="fill: rgb(206, 177, 185); fill-opacity: 1; stroke: rgb(206, 177, 185); stroke-opacity: 1; stroke-width: 10; paint-order: stroke;"/><path d="M 2220.8935546875 595.0809326171875 L 2572.131591796875 550.1285400390625 L 2567.560302734375 523.4618530273438 L 2215.560302734375 578.3190307617188 L 2224.703125 595.0809326171875 C 2224.703125 595.0809326171875 2220.8935546875 595.0809326171875 2220.8935546875 595.0809326171875 Z" style="fill: rgb(206, 177, 185); fill-opacity: 1; stroke: rgb(206, 177, 185); stroke-opacity: 1; stroke-width: 10; paint-order: stroke;"/><path d="M 2693.274658203125 528.0332641601562 L 2786.226806640625 508.9856262207031" style="fill: rgb(206, 177, 185); fill-opacity: 1; stroke: rgb(206, 177, 185); stroke-opacity: 1; stroke-width: 10; paint-order: fill;"/><path style="fill: rgb(206, 177, 185); fill-opacity: 1; stroke: rgb(206, 177, 185); stroke-opacity: 1; stroke-width: 10; paint-order: fill;"/><path d="M 2692.5126953125 499.0809020996094 L 2782.41748046875 481.5570983886719 L 2780.131591796875 512.0332641601562 L 2706.22705078125 527.2713623046875 L 2692.5126953125 499.0809020996094 Z" style="fill: rgb(206, 177, 185); fill-opacity: 1; stroke: rgb(206, 177, 185); stroke-opacity: 1; stroke-width: 10; paint-order: fill;"/><path d="M 2873.845947265625 489.1761474609375 L 3065.083984375 446.5094909667969 L 3055.17919921875 430.5094909667969 L 2870.79833984375 464.7951965332031 L 2873.845947265625 489.1761474609375 Z" style="fill: rgb(206, 177, 185); fill-opacity: 1; stroke: rgb(206, 177, 185); stroke-opacity: 1; stroke-width: 10; paint-order: fill;"/><path d="M 3122.2451171875 430.1893615722656 L 3532.149658203125 329.6178894042969 L 3146.6259765625 407.33221435546875" style="fill: rgb(206, 177, 185); fill-opacity: 1; stroke: rgb(206, 177, 185); stroke-opacity: 1; stroke-width: 10; paint-order: fill;"/><path d="M 3416.141845703125 317.8775939941406 L 3406.237060546875 354.44903564453125 L 3461.09423828125 343.02044677734375 L 3445.09423828125 312.5442810058594 L 3669.856201171875 306.44903564453125 L 3755.189453125 290.44903564453125 L 3755.189453125 263.7823486328125" style="fill: rgb(206, 177, 185); fill-opacity: 1; stroke: rgb(206, 177, 185); stroke-opacity: 1; stroke-width: 10; paint-order: fill;"/><path d="M 3806.822509765625 279.3359375 L 3768.727294921875 286.1930847167969 L 3766.441650390625 265.62164306640625 L 3793.8701171875 261.05023193359375 C 3793.8701171875 261.05023193359375 4494.822265625 166.57403564453125 4494.822265625 167.3359375 C 4494.822265625 168.09783935546875 4742.44140625 165.81211853027344 4742.44140625 165.81211853027344 L 4726.44140625 194.00259399414062" style="fill: rgb(206, 177, 185); fill-opacity: 1; stroke: rgb(206, 177, 185); stroke-opacity: 1; stroke-width: 10; paint-order: fill;"/><path d="M 4997.53466796875 193.84634399414062 L 5164.3916015625 190.03683471679688 L 5171.2490234375 170.22731018066406 L 4992.201171875 179.3701629638672 L 4996.7724609375 187.75111389160156" style="fill: rgb(206, 177, 185); fill-opacity: 1; stroke: rgb(206, 177, 185); stroke-opacity: 1; stroke-width: 10; paint-order: fill;"/><path d="M 5252.0107421875 199.94158935546875 L 5746.48681640625 251.75111389160156 L 5758.67724609375 236.5130157470703 L 5244.3916015625 182.41778564453125" style="fill: rgb(206, 177, 185); fill-opacity: 1; stroke: rgb(206, 177, 185); stroke-opacity: 1; stroke-width: 10; paint-order: fill;"/><path d="M 5809.72509765625 245.65586853027344 L 5794.48681640625 267.7510986328125 L 5854.67724609375 278.41778564453125 L 5869.91552734375 250.9892120361328 L 5945.34423828125 293.6558837890625 L 5707.63037109375 251.75111389160156" style="fill: rgb(206, 177, 185); fill-opacity: 1; stroke: rgb(206, 177, 185); stroke-opacity: 1; stroke-width: 10; paint-order: fill;"/><path d="M 5974.29638671875 295.94158935546875 L 5923.2490234375 286.7987365722656 L 5938.48681640625 260.89398193359375 L 5990.29638671875 278.41778564453125 L 5831.05810546875 273.8463439941406 L 5803.6298828125 266.98919677734375 C 5803.6298828125 266.98919677734375 5825.724609375 251.75111389160156 5826.48681640625 251.75111389160156 C 5827.2490234375 251.75111389160156 5997.15380859375 287.5606384277344 5997.91552734375 287.5606384277344" style="fill: rgb(206, 177, 185); fill-opacity: 1; stroke: rgb(206, 177, 185); stroke-opacity: 1; stroke-width: 10; paint-order: fill;"/><path d="M 6086.33056640625 321.6714172363281 L 6193.75927734375 352.1476135253906 L 6340.806640625 391.76666259765625" style="fill: rgb(206, 177, 185); fill-opacity: 1; stroke: rgb(206, 177, 185); stroke-opacity: 1; stroke-width: 10; paint-order: fill;"/><path d="M 6276.044921875 347.576171875 L 6258.52099609375 366.6238098144531 L 6283.6640625 373.4809265136719 L 6298.90185546875 350.6238098144531 L 6281.3779296875 346.81427001953125 L 6276.044921875 347.576171875 Z" style="fill: rgb(206, 177, 185); fill-opacity: 1; stroke: rgb(206, 177, 185); stroke-opacity: 1; stroke-width: 10; paint-order: fill;"/></g></g></svg>